<?xml version="1.0" standalone="no"?>
<!DOCTYPE svg PUBLIC "-//W3C//DTD SVG 20010904//EN"
 "http://www.w3.org/TR/2001/REC-SVG-20010904/DTD/svg10.dtd">
<svg version="1.0" xmlns="http://www.w3.org/2000/svg"
 width="420.000000pt" height="420.000000pt" viewBox="0 0 420.000000 420.000000"
 preserveAspectRatio="xMidYMid meet">
<metadata>
Created by potrace 1.14, written by Peter Selinger 2001-2017
</metadata>
<g transform="translate(0.000000,420.000000) scale(0.100000,-0.100000)"
fill="#000000" stroke="none">
<path d="M1950 4054 c-19 -2 -78 -9 -130 -15 -388 -43 -810 -224 -1109 -473
-261 -218 -464 -496 -578 -790 -174 -447 -174 -915 0 -1362 114 -294 317 -572
578 -790 297 -248 697 -420 1109 -475 122 -17 438 -17 560 0 817 110 1485 639
1724 1366 218 663 50 1380 -443 1888 -183 189 -354 314 -586 428 -217 106
-425 171 -657 204 -102 15 -400 27 -468 19z m375 -626 c110 -187 222 -378 249
-424 l48 -84 -80 -137 c-44 -76 -223 -381 -399 -678 -175 -297 -388 -658 -473
-802 l-155 -263 -527 0 -528 0 69 113 c38 61 210 346 383 632 944 1560 1202
1985 1207 1985 3 -1 96 -154 206 -342z"/>
</g>
</svg>
